# xmcd
#
# Track frame offsets: 
#        150
#        19121
#        34716
#        59566
#        76436
#        92174
#        117369
#        137685
#        151262
#        164966
#
# Disc length: 2513 seconds
#
# Revision: 0
# Processed by: cddbd v1.5.2PL0 Copyright (c) Steve Scherf et al.
# Submitted via: ExactAudioCopy v0.95b4
#
DISCID=8409cf0a
DTITLE=Кобзарь - Морока
DYEAR=2005
DGENRE=блюз
TTITLE0=Пузыри
TTITLE1=Отпусти
TTITLE2=Мода
TTITLE3=Сердце
TTITLE4=Зачем
TTITLE5=Фронт
TTITLE6=Воля
TTITLE7=Танго
TTITLE8=Регги
TTITLE9=Морока
EXTD=
EXTT0=
EXTT1=
EXTT2=
EXTT3=
EXTT4=
EXTT5=
EXTT6=
EXTT7=
EXTT8=
EXTT9=
PLAYORDER=
